<svg xmlns="http://www.w3.org/2000/svg" viewBox="0 0 1034 465.3"><defs><style>.a{fill:#60b4cd;}.b{fill:#fff;}</style></defs><title>nationbuider-logo</title><rect class="a" width="1034" height="465.3"/><path class="b" d="M190.28,185.52v101l-2,.91V170.6l-44.65,20.29V307.06l-1.84,1V189.73L188,168.47,178.75,164V128.36L143.49,145l0.09,38.1-1.87.73v-40l36.88-17.26L168.48,122v-5l-8.12-3.74v-4.52l-18.54-6.36-17.72,7v3.3l-9.54,4.24V122l-10,4.55v37.68l-9.26,4.24V288.09l-1.9-.82V167.91L55.69,185.85V299.5l87.5,40.21L228,300.18V203.46ZM146.9,150.61l28.77-13v5.53l-28.77,13v-5.53Zm0,10.51,28.77-13v5.53l-28.77,13v-5.54Zm0,10.52,28.77-13v5.54l-28.77,13v-5.54ZM72.33,277.79L61.71,273V262.58l10.61,4.78v10.42Zm0-20.75-10.61-4.74V241.83l10.61,4.78V257Zm0-20.18-10.61-4.74V221.64l10.61,4.78v10.42Zm0-20.75-10.61-4.74V200.89l10.61,4.78V216.1Zm14.44,68.14L76.15,279.5V269.09l10.62,4.78v10.37Zm0-20.75-10.62-4.74V248.34l10.62,4.78v10.37Zm0-20.19-10.62-4.74V228.15l10.62,4.78V243.3Zm0-20.75L76.15,217.8V207.4l10.62,4.78v10.37ZM135,323.49l-31.74-14.3v-6.07L135,317.43v6.07Zm0.18-15.63V312L103.28,297.6v-6.14l31.92,14.38v2Zm0-7.55-31.92-14.38v-6.14l31.92,14.38v6.14Zm0-11.67-31.92-14.38v-6.14L135.2,282.5v6.14Zm0-11.67-31.92-14.38v-6.14l31.92,14.38V277Zm0-11.67-31.92-14.38v-6.14l31.92,14.38v6.14Zm0-11.66-31.92-14.39v-6.14l31.92,14.38v6.15Zm0-11.68-31.92-14.38v-6.14l31.92,14.38V242Zm0-11.67-31.92-14.38v-6.14l31.92,14.38v6.14Zm0-11.67-31.92-14.38V198.1l31.92,14.38v6.14Zm0-11.67-31.92-14.38v-6.14l31.92,14.39V207Zm1.53-30.48-28.76-13V158l28.76,13v5.53Zm0-10.52L108,153v-5.54l28.76,13V166Zm0-10.51-28.76-13V137l28.76,13v5.54Zm46.41,151.92-31.76,14.31V316l31.76-14.31v5.7Zm0-13.92h0v2.4l-31.91,14.38v-5.88L183.14,290v3.48Zm0-9-31.92,14.38v-6.13l31.92-14.39v6.14Zm0-11.67-31.92,14.38V281l31.92-14.38v6.14Zm0-11.67-31.92,14.38v-6.13L183.14,255v6.14Zm0-11.67-31.92,14.38v-6.13l31.92-14.39v6.14Zm0-11.67-31.92,14.38V246l31.92-14.38v6.14Zm0-11.67-31.92,14.38v-6.14L183.14,220v6.14Zm0-11.67-31.92,14.38v-6.14l31.92-14.38v6.14Zm0-11.67-31.92,14.39V211l31.92-14.38v6.14Zm0-11.67-31.92,14.38v-6.14L183.14,185v6.14Zm20.41,77-6.22,2.77v-6.34l6.22-2.8v6.37Zm0-11.05-6.22,2.77v-6.34l6.22-2.8V257Zm0-11.05-6.22,2.77v-6.34l6.22-2.8V246Zm9.4,17.87-6.22,2.77v-6.34l6.22-2.8v6.37Zm0-11.05-6.22,2.77V249.2l6.22-2.8v6.37Zm0-11.05-6.22,2.77v-6.34l6.22-2.8v6.37ZM222,260l-6.22,2.77v-6.34l6.22-2.8V260Zm0-11.05-6.22,2.77v-6.34l6.22-2.8v6.37Zm0-11.05-6.22,2.77v-6.34l6.22-2.8v6.37Z" transform="translate(17 7.65)"/><path class="b" d="M255,207.18h11.6l38.17,49.37V207.18h12.44v71.4H306.71l-39.29-50.8v50.8H255v-71.4Z" transform="translate(17 7.65)"/><path class="b" d="M367.07,278.58V272a23,23,0,0,1-7,5.51,22.2,22.2,0,0,1-10.4,2.24,24.71,24.71,0,0,1-7.34-1.07,18.08,18.08,0,0,1-6.07-3.16,15.37,15.37,0,0,1-5.76-12.39v-0.2a17.48,17.48,0,0,1,1.63-7.8,15.22,15.22,0,0,1,4.54-5.51,19.85,19.85,0,0,1,6.94-3.26,33.86,33.86,0,0,1,8.72-1.07,48.15,48.15,0,0,1,8.31.61,50.4,50.4,0,0,1,6.58,1.63v-1q0-5.61-3.42-8.57t-9.84-3a32.86,32.86,0,0,0-8.16.92,53.37,53.37,0,0,0-7.24,2.45l-3.37-9.89a56.86,56.86,0,0,1,9.18-3.26,45.41,45.41,0,0,1,11.32-1.22q12,0,17.85,6t5.81,16.78v31.93H367.07ZM367.38,256a31.6,31.6,0,0,0-5.56-1.53,36.19,36.19,0,0,0-6.78-.61q-5.81,0-9.08,2.24a7,7,0,0,0-3.26,6.12v0.2a6.7,6.7,0,0,0,3,5.92,12.86,12.86,0,0,0,7.4,2,18.79,18.79,0,0,0,5.66-.82,14.61,14.61,0,0,0,4.54-2.29,10.44,10.44,0,0,0,3-3.57,10,10,0,0,0,1.07-4.64V256Z" transform="translate(17 7.65)"/><path class="b" d="M412.15,279.5a22.88,22.88,0,0,1-6.25-.82,12.8,12.8,0,0,1-5-2.65,11.76,11.76,0,0,1-3.24-4.84,21.44,21.44,0,0,1-1.13-7.5V235.33h-6.83V224.72h6.83V209.93H409v14.79h14.48v10.61H409v26.42q0,3.57,1.73,5.15a7,7,0,0,0,4.9,1.58,16.9,16.9,0,0,0,7.65-1.84v10.1a21.37,21.37,0,0,1-5,2A23.71,23.71,0,0,1,412.15,279.5Z" transform="translate(17 7.65)"/><path class="b" d="M436,204.73h13.36v11.73H436V204.73Zm0.51,20H449v53.86H436.53V224.72Z" transform="translate(17 7.65)"/><path class="b" d="M490.59,279.8a29.22,29.22,0,0,1-11.37-2.19,28.26,28.26,0,0,1-9.08-6,27,27,0,0,1-6-8.87A27.63,27.63,0,0,1,462,252v-0.2a27.32,27.32,0,0,1,2.19-10.91,28.1,28.1,0,0,1,15.1-15,28.92,28.92,0,0,1,11.48-2.24,29.52,29.52,0,0,1,11.48,2.19,27.62,27.62,0,0,1,15,14.89,27.53,27.53,0,0,1,2.14,10.86v0.2a27.08,27.08,0,0,1-2.19,10.81,28,28,0,0,1-15.15,15A29.3,29.3,0,0,1,490.59,279.8Zm0.2-10.71a15.93,15.93,0,0,0,6.74-1.38,15.65,15.65,0,0,0,5.12-3.72,16.11,16.11,0,0,0,3.24-5.46A19.37,19.37,0,0,0,507,252v-0.2A18.62,18.62,0,0,0,505.8,245a16.94,16.94,0,0,0-3.4-5.51,16.28,16.28,0,0,0-5.17-3.72,16.7,16.7,0,0,0-13.28,0,16.05,16.05,0,0,0-5.12,3.67,15.51,15.51,0,0,0-3.24,5.46,19.82,19.82,0,0,0-1.11,6.63v0.2a18.16,18.16,0,0,0,1.22,6.68,17.6,17.6,0,0,0,3.39,5.51,15.89,15.89,0,0,0,5.17,3.77A15.45,15.45,0,0,0,490.79,269.09Z" transform="translate(17 7.65)"/><path class="b" d="M532,224.72h12.44v8.45a30.16,30.16,0,0,1,2.9-3.65,18.9,18.9,0,0,1,3.66-3,18.63,18.63,0,0,1,4.58-2.11,19.06,19.06,0,0,1,5.65-.77q9.15,0,14.14,5.61t5,15.1v34.27H567.91V248.05q0-6.31-3-9.72t-8.44-3.41a11.45,11.45,0,0,0-8.7,3.51q-3.34,3.51-3.34,9.82v30.33H532V224.72Z" transform="translate(17 7.65)"/><path class="b" d="M596.67,207.18h32q12.32,0,18.63,6.32a16.1,16.1,0,0,1,4.79,11.83v0.2a17.66,17.66,0,0,1-.86,5.76,16.68,16.68,0,0,1-2.22,4.39,15.78,15.78,0,0,1-3.24,3.31,27.37,27.37,0,0,1-3.79,2.45,35.9,35.9,0,0,1,5.73,2.6,18.47,18.47,0,0,1,4.46,3.52,14.31,14.31,0,0,1,2.89,4.79,18.57,18.57,0,0,1,1,6.43V259a18.29,18.29,0,0,1-1.88,8.47,16.81,16.81,0,0,1-5.35,6.12,25.45,25.45,0,0,1-8.35,3.72,42.72,42.72,0,0,1-10.79,1.27h-33v-71.4Zm29.52,30.09q6.1,0,9.76-2.4a8.12,8.12,0,0,0,3.66-7.29v-0.2a7.87,7.87,0,0,0-3.2-6.68q-3.2-2.4-9.3-2.4h-18v19h17.08Zm3.67,30.19q6.41,0,10.07-2.45a8.25,8.25,0,0,0,3.66-7.34v-0.2a8.12,8.12,0,0,0-3.61-7.09q-3.61-2.5-11-2.5H609.11v19.58h20.75Z" transform="translate(17 7.65)"/><path class="b" d="M687.39,279.7q-9.16,0-14.14-5.61t-5-15.1V224.72h12.44v30.53q0,6.31,3,9.72t8.45,3.41a11.45,11.45,0,0,0,8.7-3.51q3.34-3.51,3.34-9.82V224.72h12.44v53.86H704.18v-8.45a26.44,26.44,0,0,1-6.61,6.74A17.11,17.11,0,0,1,687.39,279.7Z" transform="translate(17 7.65)"/><path class="b" d="M732.33,204.73h13.36v11.73H732.33V204.73Zm0.51,20h12.44v53.86H732.84V224.72Z" transform="translate(17 7.65)"/><path class="b" d="M762,204.12h12.44v74.46H762V204.12Z" transform="translate(17 7.65)"/><path class="b" d="M812.7,279.7a24.29,24.29,0,0,1-9.28-1.84,23.24,23.24,0,0,1-8-5.41,27.37,27.37,0,0,1-5.61-8.77,31.14,31.14,0,0,1-2.14-11.93v-0.2a31.88,31.88,0,0,1,2.09-11.93,26.68,26.68,0,0,1,5.55-8.77,23.1,23.1,0,0,1,8-5.41,24.55,24.55,0,0,1,9.31-1.84,19.73,19.73,0,0,1,11,2.86,30.11,30.11,0,0,1,7.33,6.63v-29h12.44v74.46H831l0.1-9a27.91,27.91,0,0,1-7.39,7.14A19.34,19.34,0,0,1,812.7,279.7ZM815.61,269a14.79,14.79,0,0,0,5.9-1.22,14.64,14.64,0,0,0,5-3.52,17.5,17.5,0,0,0,3.41-5.46,18.68,18.68,0,0,0,1.27-7v-0.2a19.09,19.09,0,0,0-1.27-7.09,16.78,16.78,0,0,0-3.41-5.46,15,15,0,0,0-5-3.47,14.79,14.79,0,0,0-5.9-1.22,15.23,15.23,0,0,0-5.95,1.17,14.49,14.49,0,0,0-4.93,3.42,16.09,16.09,0,0,0-3.35,5.46,20.14,20.14,0,0,0-1.22,7.19v0.2a19.84,19.84,0,0,0,1.22,7.09,16.08,16.08,0,0,0,3.35,5.46,15.11,15.11,0,0,0,4.93,3.47A14.68,14.68,0,0,0,815.61,269Z" transform="translate(17 7.65)"/><path class="b" d="M883.49,279.8a28.73,28.73,0,0,1-10.86-2A26.06,26.06,0,0,1,858,263.23a29.34,29.34,0,0,1-2.14-11.37v-0.2a30.45,30.45,0,0,1,1.94-10.91,27.37,27.37,0,0,1,5.46-8.92,25.72,25.72,0,0,1,8.31-6,25.22,25.22,0,0,1,10.61-2.19,25.59,25.59,0,0,1,11.27,2.35,23.2,23.2,0,0,1,8.06,6.32,27.55,27.55,0,0,1,4.84,9.23A37.14,37.14,0,0,1,908,252.57q0,0.82-.05,1.68T907.77,256H868.19q1,6.63,5.25,10.15a15.51,15.51,0,0,0,10.25,3.52,18,18,0,0,0,8-1.63,25.83,25.83,0,0,0,6.63-4.79l7.24,6.43a29.83,29.83,0,0,1-9.23,7.34A27.68,27.68,0,0,1,883.49,279.8Zm12.24-31.93a21.13,21.13,0,0,0-1.33-5.56,14.24,14.24,0,0,0-2.75-4.49,13.13,13.13,0,0,0-4.13-3,12.74,12.74,0,0,0-5.46-1.12,12.45,12.45,0,0,0-9.43,3.93,17.73,17.73,0,0,0-4.54,10.25h27.64Z" transform="translate(17 7.65)"/><path class="b" d="M920.41,224.72h12.44v12.14a23.7,23.7,0,0,1,7.24-9.79q4.69-3.67,11.83-3.37v13.06h-0.71a20.17,20.17,0,0,0-7.45,1.33,15.6,15.6,0,0,0-5.81,4,18,18,0,0,0-3.77,6.68,29.86,29.86,0,0,0-1.33,9.33v20.5H920.41V224.72Z" transform="translate(17 7.65)"/></svg>