<svg xmlns="http://www.w3.org/2000/svg" viewBox="0 0 1034 465.3"><defs><style>.a{fill:#60b4cd}.b{fill:#fff}</style></defs><title>nationbuider-logo</title><path class="a" d="M0 0h1034v465.3H0z"/><path class="b" d="M207.28 193.17v101l-2 .91V178.25l-44.65 20.29v116.17l-1.84 1V197.38L205 176.12l-9.25-4.47v-35.64l-35.26 16.64.09 38.1-1.87.73v-40l36.88-17.26-10.11-4.57v-5l-8.12-3.74v-4.52l-18.54-6.36-17.72 7v3.3l-9.54 4.24v5.08l-10 4.55v37.68l-9.26 4.24v119.62l-1.9-.82V175.56L72.69 193.5v113.65l87.5 40.21L245 307.83v-96.72zm-43.38-34.91l28.77-13v5.53l-28.77 13v-5.53zm0 10.51l28.77-13v5.53l-28.77 13v-5.54zm0 10.52l28.77-13v5.54l-28.77 13v-5.54zM89.33 285.44l-10.62-4.79v-10.42l10.61 4.78v10.42zm0-20.75l-10.61-4.74v-10.47l10.61 4.78v10.39zm0-20.18l-10.61-4.74v-10.48l10.61 4.78v10.42zm0-20.75l-10.61-4.74v-10.48l10.61 4.78v10.43zm14.44 68.14l-10.62-4.75v-10.41l10.62 4.78v10.37zm0-20.75l-10.62-4.74v-10.42l10.62 4.78v10.37zm0-20.19l-10.62-4.74V235.8l10.62 4.78v10.37zm0-20.75l-10.62-4.76v-10.4l10.62 4.78v10.37zM152 331.14l-31.74-14.3v-6.07L152 325.08v6.07zm.18-15.63v4.14l-31.9-14.4v-6.14l31.92 14.38v2zm0-7.55l-31.92-14.38v-6.14l31.92 14.38v6.14zm0-11.67l-31.92-14.38v-6.14l31.94 14.38v6.14zm0-11.67l-31.92-14.38v-6.14l31.92 14.38v6.17zm0-11.67l-31.92-14.38v-6.14l31.92 14.38v6.14zm0-11.66l-31.92-14.39v-6.14l31.92 14.38v6.15zm0-11.68l-31.92-14.38v-6.14l31.92 14.38v6.18zm0-11.67l-31.92-14.38v-6.14l31.92 14.38v6.14zm0-11.67l-31.92-14.38v-6.14l31.92 14.38v6.14zm0-11.67l-31.92-14.38v-6.14l31.92 14.39v6.18zm1.53-30.48l-28.76-13v-5.47l28.76 13v5.53zm0-10.52L125 160.65v-5.54l28.76 13v5.54zm0-10.51l-28.76-13v-5.44l28.76 13v5.54zm46.41 151.92l-31.76 14.31v-5.67l31.76-14.31v5.7zm0-13.92v2.4l-31.91 14.38v-5.88l31.93-14.34v3.48zm0-9l-31.92 14.38v-6.13l31.92-14.39v6.14zm0-11.67L168.2 294.8v-6.15l31.92-14.38v6.14zm0-11.67l-31.92 14.38V277l31.94-14.35v6.14zm0-11.67l-31.92 14.38v-6.13l31.92-14.39v6.14zm0-11.67l-31.92 14.38v-6.14l31.92-14.38v6.14zm0-11.67l-31.92 14.38v-6.14l31.94-14.33v6.14zm0-11.67l-31.92 14.38v-6.14l31.92-14.38v6.14zm0-11.67l-31.92 14.39v-6.14l31.92-14.38v6.14zm0-11.67l-31.92 14.38v-6.14l31.94-14.32v6.14zm20.41 77l-6.22 2.77v-6.34l6.22-2.8v6.37zm0-11.05l-6.22 2.77v-6.34l6.22-2.8v6.34zm0-11.05l-6.22 2.77v-6.34l6.22-2.8v6.39zm9.4 17.87l-6.22 2.77v-6.34l6.22-2.8v6.37zm0-11.05l-6.22 2.77v-6.37l6.22-2.8v6.37zm0-11.05l-6.22 2.77v-6.34l6.22-2.8v6.37zm9.07 18.25l-6.22 2.77v-6.34l6.22-2.8v6.37zm0-11.05l-6.22 2.77v-6.34l6.22-2.8v6.37zm0-11.05l-6.22 2.77v-6.34l6.22-2.8v6.37zm33-30.72h11.6l38.17 49.37v-49.37h12.44v71.4h-10.5l-39.29-50.8v50.8H272v-71.4zm112.07 71.4v-6.58a23 23 0 0 1-7 5.51 22.2 22.2 0 0 1-10.4 2.24 24.71 24.71 0 0 1-7.34-1.07 18.08 18.08 0 0 1-6.07-3.16 15.37 15.37 0 0 1-5.76-12.39v-.2a17.48 17.48 0 0 1 1.63-7.8 15.22 15.22 0 0 1 4.54-5.51 19.85 19.85 0 0 1 6.94-3.26 33.86 33.86 0 0 1 8.72-1.07 48.15 48.15 0 0 1 8.31.61 50.4 50.4 0 0 1 6.58 1.63v-1q0-5.61-3.42-8.57t-9.84-3a32.86 32.86 0 0 0-8.16.92 53.37 53.37 0 0 0-7.24 2.45l-3.37-9.89a56.86 56.86 0 0 1 9.18-3.26 45.41 45.41 0 0 1 11.32-1.22q12 0 17.85 6t5.81 16.78v31.93h-12.28zm.31-22.58a31.6 31.6 0 0 0-5.56-1.53 36.19 36.19 0 0 0-6.78-.61q-5.81 0-9.08 2.24a7 7 0 0 0-3.26 6.12v.2a6.7 6.7 0 0 0 3 5.92 12.86 12.86 0 0 0 7.4 2 18.79 18.79 0 0 0 5.66-.82 14.61 14.61 0 0 0 4.54-2.29 10.44 10.44 0 0 0 3-3.57 10 10 0 0 0 1.07-4.64v-3.02zm44.77 23.5a22.88 22.88 0 0 1-6.25-.82 12.8 12.8 0 0 1-5-2.65 11.76 11.76 0 0 1-3.24-4.84 21.44 21.44 0 0 1-1.13-7.5v-28.36h-6.83v-10.61h6.83v-14.79H426v14.79h14.48v10.61H426v26.42q0 3.57 1.73 5.15a7 7 0 0 0 4.9 1.58 16.9 16.9 0 0 0 7.65-1.84v10.1a21.37 21.37 0 0 1-5 2 23.71 23.71 0 0 1-6.13.76zM453 212.38h13.36v11.73H453v-11.73zm.51 20H466v53.86h-12.47v-53.87zm54.08 55.07a29.22 29.22 0 0 1-11.37-2.19 28.26 28.26 0 0 1-9.08-6 27 27 0 0 1-6-8.87 27.63 27.63 0 0 1-2.14-10.74v-.2a27.32 27.32 0 0 1 2.19-10.91 28.1 28.1 0 0 1 15.1-15 28.92 28.92 0 0 1 11.48-2.24 29.52 29.52 0 0 1 11.48 2.19 27.62 27.62 0 0 1 15 14.89 27.53 27.53 0 0 1 2.14 10.86v.2a27.08 27.08 0 0 1-2.19 10.81 28 28 0 0 1-15.15 15 29.3 29.3 0 0 1-11.46 2.2zm.2-10.71a15.93 15.93 0 0 0 6.74-1.38 15.65 15.65 0 0 0 5.12-3.72 16.11 16.11 0 0 0 3.24-5.46 19.37 19.37 0 0 0 1.11-6.53v-.2a18.62 18.62 0 0 0-1.2-6.8 16.94 16.94 0 0 0-3.4-5.51 16.28 16.28 0 0 0-5.17-3.72 16.7 16.7 0 0 0-13.28 0 16.05 16.05 0 0 0-5.12 3.67 15.51 15.51 0 0 0-3.24 5.46 19.82 19.82 0 0 0-1.11 6.63v.2a18.16 18.16 0 0 0 1.22 6.68 17.6 17.6 0 0 0 3.39 5.51 15.89 15.89 0 0 0 5.17 3.77 15.45 15.45 0 0 0 6.53 1.4zM549 232.37h12.44v8.45a30.16 30.16 0 0 1 2.9-3.65 18.9 18.9 0 0 1 3.66-3 18.63 18.63 0 0 1 4.58-2.11 19.06 19.06 0 0 1 5.65-.77q9.15 0 14.14 5.61t5 15.1v34.27h-12.46V255.7q0-6.31-3-9.72t-8.44-3.41a11.45 11.45 0 0 0-8.7 3.51q-3.34 3.51-3.34 9.82v30.33H549v-53.86zm64.67-17.54h32q12.32 0 18.63 6.32a16.1 16.1 0 0 1 4.79 11.83v.2a17.66 17.66 0 0 1-.86 5.76 16.68 16.68 0 0 1-2.22 4.39 15.78 15.78 0 0 1-3.24 3.31 27.37 27.37 0 0 1-3.79 2.45 35.9 35.9 0 0 1 5.73 2.6 18.47 18.47 0 0 1 4.46 3.52 14.31 14.31 0 0 1 2.89 4.79 18.57 18.57 0 0 1 1 6.43v.22a18.29 18.29 0 0 1-1.88 8.47 16.81 16.81 0 0 1-5.35 6.12 25.45 25.45 0 0 1-8.35 3.72 42.72 42.72 0 0 1-10.79 1.27h-33v-71.4zm29.52 30.09q6.1 0 9.76-2.4a8.12 8.12 0 0 0 3.66-7.29v-.2a7.87 7.87 0 0 0-3.2-6.68q-3.2-2.4-9.3-2.4h-18v19h17.08zm3.67 30.19q6.41 0 10.07-2.45a8.25 8.25 0 0 0 3.66-7.34v-.2a8.12 8.12 0 0 0-3.61-7.09q-3.61-2.5-11-2.5h-19.87v19.58h20.75zm57.53 12.24q-9.16 0-14.14-5.61t-5-15.1v-34.27h12.44v30.53q0 6.31 3 9.72t8.45 3.41a11.45 11.45 0 0 0 8.7-3.51q3.34-3.51 3.34-9.82v-30.33h12.44v53.86h-12.44v-8.45a26.44 26.44 0 0 1-6.61 6.74 17.11 17.11 0 0 1-10.18 2.83zm44.94-74.97h13.36v11.73h-13.36v-11.73zm.51 20h12.44v53.86h-12.44v-53.87zM779 211.77h12.44v74.46H779v-74.46zm50.7 75.58a24.29 24.29 0 0 1-9.28-1.84 23.24 23.24 0 0 1-8-5.41 27.37 27.37 0 0 1-5.61-8.77 31.14 31.14 0 0 1-2.14-11.93v-.2a31.88 31.88 0 0 1 2.09-11.93 26.68 26.68 0 0 1 5.55-8.77 23.1 23.1 0 0 1 8-5.41 24.55 24.55 0 0 1 9.31-1.84 19.73 19.73 0 0 1 11 2.86 30.11 30.11 0 0 1 7.33 6.63v-29h12.44v74.46H848l.1-9a27.91 27.91 0 0 1-7.39 7.14 19.34 19.34 0 0 1-11.01 3.01zm2.91-10.7a14.79 14.79 0 0 0 5.9-1.22 14.64 14.64 0 0 0 5-3.52 17.5 17.5 0 0 0 3.41-5.46 18.68 18.68 0 0 0 1.27-7v-.2a19.09 19.09 0 0 0-1.27-7.09 16.78 16.78 0 0 0-3.41-5.46 15 15 0 0 0-5-3.47 14.79 14.79 0 0 0-5.9-1.22 15.23 15.23 0 0 0-5.95 1.17 14.49 14.49 0 0 0-4.93 3.42 16.09 16.09 0 0 0-3.35 5.46 20.14 20.14 0 0 0-1.22 7.19v.2a19.84 19.84 0 0 0 1.22 7.09 16.08 16.08 0 0 0 3.35 5.46 15.11 15.11 0 0 0 4.93 3.47 14.68 14.68 0 0 0 5.95 1.18zm67.88 10.8a28.73 28.73 0 0 1-10.86-2A26.06 26.06 0 0 1 875 270.88a29.34 29.34 0 0 1-2.14-11.37v-.2a30.45 30.45 0 0 1 1.94-10.91 27.37 27.37 0 0 1 5.46-8.92 25.72 25.72 0 0 1 8.31-6 25.22 25.22 0 0 1 10.61-2.19 25.59 25.59 0 0 1 11.27 2.35 23.2 23.2 0 0 1 8.06 6.32 27.55 27.55 0 0 1 4.84 9.23 37.14 37.14 0 0 1 1.65 11.03q0 .82-.05 1.68t-.18 1.75h-39.58q1 6.63 5.25 10.15a15.51 15.51 0 0 0 10.25 3.52 18 18 0 0 0 8-1.63 25.83 25.83 0 0 0 6.63-4.79l7.24 6.43a29.83 29.83 0 0 1-9.23 7.34 27.68 27.68 0 0 1-12.84 2.78zm12.24-31.93a21.13 21.13 0 0 0-1.33-5.56 14.24 14.24 0 0 0-2.75-4.49 13.13 13.13 0 0 0-4.13-3 12.74 12.74 0 0 0-5.46-1.12 12.45 12.45 0 0 0-9.43 3.93 17.73 17.73 0 0 0-4.54 10.25h27.64zm24.68-23.15h12.44v12.14a23.7 23.7 0 0 1 7.24-9.79q4.69-3.67 11.83-3.37v13.06h-.71a20.17 20.17 0 0 0-7.45 1.33 15.6 15.6 0 0 0-5.81 4 18 18 0 0 0-3.77 6.68 29.86 29.86 0 0 0-1.33 9.33v20.5h-12.44v-53.88z"/></svg>